<?xml version="1.0" standalone="no"?>
<svg xmlns="http://www.w3.org/2000/svg" viewBox="0 0 177.072 36" width="177.072" height="36"><g fill="#7732e6" color="#7732e6" transform="translate(149.072, 4) scale(0.875)"><svg width="32.0" height="32.0" x="0.0" y="0.0" viewBox="0 0 32 32"><path d="M17.063 0l-.031.156-5 22-.188.844h3.094l.031-.156 5-22 .188-.844h-3.094zm-7.063 3l-.406.313-9 7-.594.469v1.438l.594.469 9 7 .406.313v-3.781l-6.063-4.719 6.063-4.719v-3.781zm12 0v3.781l6.063 4.719-6.063 4.719v3.781l.406-.313 9-7 .594-.469v-1.438l-.594-.469-9-7-.406-.313z" transform="translate(0 4)"></path></svg></g><path fill="#ffffff" fill-rule="nonzero" d="M5.23 19.82L5.23 19.82Q3.17 19.82 2.03 18.96Q0.89 18.10 0.44 16.63Q0 15.17 0 13.37L0 13.37L0 6.50Q0 4.54 0.44 3.07Q0.89 1.61 2.03 0.80Q3.17 0 5.23 0L5.23 0Q7.06 0 8.12 0.67Q9.19 1.34 9.66 2.59Q10.13 3.84 10.13 5.59L10.13 5.59L10.13 7.13L7.56 7.13L7.56 5.76Q7.56 4.68 7.45 3.85Q7.34 3.02 6.86 2.57Q6.38 2.11 5.26 2.11L5.26 2.11Q4.10 2.11 3.58 2.60Q3.05 3.10 2.89 4.00Q2.74 4.90 2.74 6.10L2.74 6.10L2.74 13.80Q2.74 15.26 2.98 16.12Q3.22 16.97 3.77 17.33Q4.32 17.69 5.26 17.69L5.26 17.69Q6.36 17.69 6.84 17.20Q7.32 16.70 7.44 15.84Q7.56 14.98 7.56 13.82L7.56 13.82L7.56 12.38L10.13 12.38L10.13 13.82Q10.13 15.60 9.70 16.96Q9.26 18.31 8.21 19.07Q7.15 19.82 5.23 19.82ZM16.32 19.80L16.32 19.80Q14.78 19.80 13.90 19.18Q13.01 18.55 12.64 17.40Q12.26 16.25 12.26 14.69L12.26 14.69L12.26 10.66Q12.26 9.10 12.64 7.94Q13.01 6.79 13.90 6.17Q14.78 5.54 16.32 5.54L16.32 5.54Q17.86 5.54 18.73 6.17Q19.61 6.79 19.98 7.94Q20.35 9.10 20.35 10.66L20.35 10.66L20.35 14.69Q20.35 16.25 19.98 17.40Q19.61 18.55 18.73 19.18Q17.86 19.80 16.32 19.80ZM16.32 17.90L16.32 17.90Q17.06 17.90 17.36 17.47Q17.66 17.04 17.72 16.33Q17.78 15.62 17.78 14.86L17.78 14.86L17.78 10.51Q17.78 9.72 17.72 9.02Q17.66 8.33 17.36 7.88Q17.06 7.44 16.32 7.44L16.32 7.44Q15.58 7.44 15.26 7.88Q14.95 8.33 14.89 9.02Q14.83 9.72 14.83 10.51L14.83 10.51L14.83 14.86Q14.83 15.62 14.89 16.33Q14.95 17.04 15.26 17.47Q15.58 17.90 16.32 17.90ZM25.92 19.80L25.92 19.80Q24.17 19.80 23.30 18.52Q22.44 17.23 22.44 14.16L22.44 14.16L22.44 11.47Q22.44 9.89 22.70 8.53Q22.97 7.18 23.70 6.36Q24.43 5.54 25.85 5.54L25.85 5.54Q26.54 5.54 27.12 5.86Q27.70 6.17 28.15 6.62L28.15 6.62L28.15 0.17L30.72 0.17L30.72 19.61L28.15 19.61L28.15 18.72Q27.70 19.20 27.16 19.50Q26.62 19.80 25.92 19.80ZM26.57 17.78L26.57 17.78Q26.93 17.78 27.34 17.65Q27.74 17.52 28.15 17.26L28.15 17.26L28.15 8.16Q27.82 7.92 27.41 7.74Q27 7.56 26.52 7.56L26.52 7.56Q25.63 7.56 25.32 8.41Q25.01 9.26 25.01 10.46L25.01 10.46L25.01 14.38Q25.01 15.34 25.12 16.12Q25.22 16.90 25.56 17.34Q25.90 17.78 26.57 17.78ZM35.95 19.61L33.38 19.61L33.38 5.74L35.95 5.74L35.95 7.70Q36.72 6.43 37.49 6Q38.26 5.57 39.02 5.57L39.02 5.57Q39.12 5.57 39.20 5.57Q39.29 5.57 39.43 5.59L39.43 5.59L39.43 8.42Q39.14 8.30 38.77 8.22Q38.40 8.14 38.02 8.14L38.02 8.14Q37.42 8.14 36.92 8.41Q36.43 8.69 35.95 9.48L35.95 9.48L35.95 19.61ZM43.75 19.61L41.18 19.61L41.18 5.74L43.75 5.74L43.75 19.61ZM43.75 3.67L41.18 3.67L41.18 0.98L43.75 0.98L43.75 3.67ZM49.08 19.61L46.51 19.61L46.51 5.74L49.08 5.74L49.08 7.10Q49.78 6.46 50.62 6Q51.46 5.54 52.46 5.54L52.46 5.54Q53.30 5.54 53.75 5.98Q54.19 6.41 54.37 7.06Q54.55 7.70 54.55 8.38L54.55 8.38L54.55 19.61L51.98 19.61L51.98 9.12Q51.98 8.38 51.77 7.97Q51.55 7.56 50.88 7.56L50.88 7.56Q50.45 7.56 49.98 7.81Q49.51 8.06 49.08 8.42L49.08 8.42L49.08 19.61ZM67.63 19.82L67.63 19.82Q65.57 19.82 64.43 18.96Q63.29 18.10 62.84 16.63Q62.40 15.17 62.40 13.37L62.40 13.37L62.40 6.50Q62.40 4.54 62.84 3.07Q63.29 1.61 64.43 0.80Q65.57 0 67.63 0L67.63 0Q69.46 0 70.52 0.67Q71.59 1.34 72.06 2.59Q72.53 3.84 72.53 5.59L72.53 5.59L72.53 7.13L69.96 7.13L69.96 5.76Q69.96 4.68 69.85 3.85Q69.74 3.02 69.26 2.57Q68.78 2.11 67.66 2.11L67.66 2.11Q66.50 2.11 65.98 2.60Q65.45 3.10 65.29 4.00Q65.14 4.90 65.14 6.10L65.14 6.10L65.14 13.80Q65.14 15.26 65.38 16.12Q65.62 16.97 66.17 17.33Q66.72 17.69 67.66 17.69L67.66 17.69Q68.76 17.69 69.24 17.20Q69.72 16.70 69.84 15.84Q69.96 14.98 69.96 13.82L69.96 13.82L69.96 12.38L72.53 12.38L72.53 13.82Q72.53 15.60 72.10 16.96Q71.66 18.31 70.61 19.07Q69.55 19.82 67.63 19.82ZM77.40 19.80L77.40 19.80Q76.58 19.80 75.96 19.33Q75.34 18.86 74.98 18.13Q74.62 17.40 74.62 16.58L74.62 16.58Q74.62 15.29 75.05 14.40Q75.48 13.51 76.24 12.90Q76.99 12.29 77.99 11.83Q78.98 11.38 80.09 10.94L80.09 10.94L80.09 9.96Q80.09 9.12 79.99 8.57Q79.90 8.02 79.60 7.74Q79.30 7.46 78.70 7.46L78.70 7.46Q78.17 7.46 77.84 7.70Q77.52 7.94 77.38 8.39Q77.23 8.83 77.23 9.43L77.23 9.43L77.23 10.13L74.69 10.03Q74.74 7.73 75.74 6.64Q76.75 5.54 78.86 5.54L78.86 5.54Q80.93 5.54 81.79 6.67Q82.66 7.80 82.66 9.94L82.66 9.94L82.66 16.27Q82.66 16.92 82.69 17.52Q82.73 18.12 82.79 18.64Q82.85 19.15 82.90 19.61L82.90 19.61L80.54 19.61Q80.47 19.22 80.36 18.64Q80.26 18.05 80.21 17.57L80.21 17.57Q79.97 18.38 79.28 19.09Q78.60 19.80 77.40 19.80ZM78.41 17.59L78.41 17.59Q78.79 17.59 79.13 17.38Q79.46 17.16 79.73 16.88Q79.99 16.61 80.09 16.44L80.09 16.44L80.09 12.50Q79.49 12.84 78.96 13.18Q78.43 13.51 78.04 13.88Q77.64 14.26 77.41 14.72Q77.18 15.19 77.18 15.79L77.18 15.79Q77.18 16.63 77.50 17.11Q77.81 17.59 78.41 17.59ZM87.77 19.61L85.20 19.61L85.20 5.74L87.77 5.74L87.77 7.70Q88.54 6.43 89.30 6Q90.07 5.57 90.84 5.57L90.84 5.57Q90.94 5.57 91.02 5.57Q91.10 5.57 91.25 5.59L91.25 5.59L91.25 8.42Q90.96 8.30 90.59 8.22Q90.22 8.14 89.83 8.14L89.83 8.14Q89.23 8.14 88.74 8.41Q88.25 8.69 87.77 9.48L87.77 9.48L87.77 19.61ZM95.40 24.17L92.83 24.17L92.83 5.74L95.40 5.74L95.40 6.84Q95.86 6.31 96.50 5.93Q97.15 5.54 98.04 5.54L98.04 5.54Q99.12 5.54 99.76 6.11Q100.39 6.67 100.70 7.52Q101.02 8.38 101.11 9.25Q101.21 10.13 101.21 10.75L101.21 10.75L101.21 14.11Q101.21 15.58 100.92 16.88Q100.63 18.19 99.88 19.00Q99.12 19.80 97.75 19.80L97.75 19.80Q97.01 19.80 96.43 19.43Q95.86 19.06 95.40 18.58L95.40 18.58L95.40 24.17ZM97.25 17.78L97.25 17.78Q97.92 17.78 98.21 17.29Q98.50 16.80 98.57 15.96Q98.64 15.12 98.64 14.11L98.64 14.11L98.64 10.75Q98.64 9.89 98.54 9.16Q98.45 8.42 98.14 7.99Q97.82 7.56 97.15 7.56L97.15 7.56Q96.65 7.56 96.19 7.78Q95.74 7.99 95.40 8.28L95.40 8.28L95.40 17.16Q95.76 17.42 96.22 17.60Q96.67 17.78 97.25 17.78ZM107.35 19.80L107.35 19.80Q105.82 19.80 104.93 19.18Q104.04 18.55 103.67 17.40Q103.30 16.25 103.30 14.69L103.30 14.69L103.30 10.66Q103.30 9.10 103.67 7.94Q104.04 6.79 104.93 6.17Q105.82 5.54 107.35 5.54L107.35 5.54Q108.89 5.54 109.76 6.17Q110.64 6.79 111.01 7.94Q111.38 9.10 111.38 10.66L111.38 10.66L111.38 14.69Q111.38 16.25 111.01 17.40Q110.64 18.55 109.76 19.18Q108.89 19.80 107.35 19.80ZM107.35 17.90L107.35 17.90Q108.10 17.90 108.40 17.47Q108.70 17.04 108.76 16.33Q108.82 15.62 108.82 14.86L108.82 14.86L108.82 10.51Q108.82 9.72 108.76 9.02Q108.70 8.33 108.40 7.88Q108.10 7.44 107.35 7.44L107.35 7.44Q106.61 7.44 106.30 7.88Q105.98 8.33 105.92 9.02Q105.86 9.72 105.86 10.51L105.86 10.51L105.86 14.86Q105.86 15.62 105.92 16.33Q105.98 17.04 106.30 17.47Q106.61 17.90 107.35 17.90ZM118.68 19.61L115.54 19.61L112.80 5.74L115.39 5.74L117.10 16.90L118.82 5.74L121.32 5.74L118.68 19.61ZM125.71 19.61L123.14 19.61L123.14 5.74L125.71 5.74L125.71 19.61ZM125.71 3.67L123.14 3.67L123.14 0.98L125.71 0.98L125.71 3.67ZM132.26 19.80L132.26 19.80Q130.56 19.80 129.68 19.12Q128.81 18.43 128.51 17.18Q128.21 15.94 128.21 14.28L128.21 14.28L128.21 11.09Q128.21 9.34 128.52 8.10Q128.83 6.86 129.71 6.20Q130.58 5.54 132.26 5.54L132.26 5.54Q133.78 5.54 134.60 6.04Q135.43 6.53 135.74 7.50Q136.06 8.47 136.06 9.91L136.06 9.91L136.06 10.73L133.73 10.73L133.73 9.89Q133.73 8.98 133.61 8.45Q133.49 7.92 133.18 7.68Q132.86 7.44 132.29 7.44L132.29 7.44Q131.66 7.44 131.33 7.73Q130.99 8.02 130.88 8.70Q130.78 9.38 130.78 10.56L130.78 10.56L130.78 14.93Q130.78 16.70 131.11 17.30Q131.45 17.90 132.31 17.90L132.31 17.90Q132.96 17.90 133.26 17.60Q133.56 17.30 133.64 16.75Q133.73 16.20 133.73 15.50L133.73 15.50L133.73 14.38L136.06 14.38L136.06 15.34Q136.06 16.73 135.73 17.74Q135.41 18.74 134.58 19.27Q133.75 19.80 132.26 19.80ZM141.07 19.61L138.50 19.61L138.50 5.74L141.07 5.74L141.07 19.61ZM141.07 3.67L138.50 3.67L138.50 0.98L141.07 0.98L141.07 3.67Z" transform="translate(0, 5.916)"></path></svg>